<?xml version="1.0" encoding="utf-8"?>
<!-- Generator: Adobe Illustrator 13.0.0, SVG Export Plug-In . SVG Version: 6.00 Build 14948)  -->
<!DOCTYPE svg PUBLIC "-//W3C//DTD SVG 1.1//EN" "http://www.w3.org/Graphics/SVG/1.1/DTD/svg11.dtd">
<svg version="1.1" id="Layer_1" xmlns="http://www.w3.org/2000/svg" xmlns:xlink="http://www.w3.org/1999/xlink" x="0px" y="0px"
	 width="336.167px" height="858.829px" viewBox="0 0 336.167 858.829" enable-background="new 0 0 336.167 858.829"
	 xml:space="preserve">
<path fill="#F4FAFE" d="M336.167,0c-25.067,4.489-48.943,15.99-68.604,34.755c-26.102,24.914-40.056,57.895-41.82,91.808
	c-2.068,26.099-14.511,53.043-36.664,74.188c-18.541,17.697-40.826,28.412-62.941,31.938c-31.33,2.057-61.257,14.105-84.755,36.534
	c-57.488,54.871-54.741,151.055,6.134,214.833c20.258,21.225,44.404,36.178,69.721,44.672
	c39.456,15.242,80.537,42.711,116.739,80.64c55.134,57.764,85.533,125.708,85.952,180.567l0.012,0.009
	c0.691,23.269,6.114,46.751,16.228,68.886V0z"/>
</svg>
