<?xml version="1.0" encoding="utf-8"?>
<!-- Generator: Adobe Illustrator 13.0.0, SVG Export Plug-In . SVG Version: 6.00 Build 14948)  -->
<!DOCTYPE svg PUBLIC "-//W3C//DTD SVG 1.1//EN" "http://www.w3.org/Graphics/SVG/1.1/DTD/svg11.dtd">
<svg version="1.1" id="Layer_1" xmlns="http://www.w3.org/2000/svg" xmlns:xlink="http://www.w3.org/1999/xlink" x="0px" y="0px"
	 width="924.812px" height="903.368px" viewBox="0 0 924.812 903.368" enable-background="new 0 0 924.812 903.368"
	 xml:space="preserve">
<path fill="#F4FAFE" d="M0,898.847c89.28-8.148,113.665-88.703,318.28-16.826c129.667,45.548,208.667,6.021,244-6.966
	c18.525-6.808,35.884-16.718,50.466-29.628c35.475-31.408,43.92-79.854,28.889-125.35l0.02-0.007
	c-7.867-24.381-1.748-53.544,19.033-77.307c23.338-26.687,58.748-39.227,90.227-34.825c9.566,1.758,19.49,2.688,29.678,2.688
	c79.253,0,144.221-55.887,144.221-126.057c0-33.014-14.224-63.083-37.537-85.674c-17.451-17.856-28.352-43.112-28.352-71.131
	c0-23.451,7.635-44.968,20.354-61.831c20.145-22.035,32.092-49.453,32.092-79.173c0-72.711-71.475-131.651-159.642-131.651
	c-29.341,0-56.828,6.533-80.452,17.924c-38.27,16.484-86.504,26.321-138.936,26.321c-79.854,0-149.992-22.802-189.966-57.179
	l-0.014,0.002C310.627,16.07,267.412,0,219.778,0C154.743,0,97.937,29.951,67.363,74.52C58.228,85.939,31.154,115.324,0,107.169
	V898.847z"/>
</svg>
