<?xml version="1.0" encoding="utf-8"?>
<!-- Generator: Adobe Illustrator 13.0.0, SVG Export Plug-In . SVG Version: 6.00 Build 14948)  -->
<!DOCTYPE svg PUBLIC "-//W3C//DTD SVG 1.1//EN" "http://www.w3.org/Graphics/SVG/1.1/DTD/svg11.dtd">
<svg version="1.1" id="Layer_1" xmlns="http://www.w3.org/2000/svg" xmlns:xlink="http://www.w3.org/1999/xlink" x="0px" y="0px"
	 width="417.136px" height="666.717px" viewBox="0 0 417.136 666.717" enable-background="new 0 0 417.136 666.717"
	 xml:space="preserve">
<path fill="#F4FAFE" d="M417.136,63.353c-7.622,4.102-16.345,6.89-25.81,7.94c-25.544,2.836-49.438-7.722-62.413-25.377
	c-3.719-5.589-8.053-10.911-13.009-15.866c-38.557-38.558-99.88-40.447-137.193-3.135c-17.555,17.555-26.625,40.464-27.295,63.818
	c-1.004,17.984-9.131,36.717-24.029,51.616c-12.47,12.47-27.626,20.196-42.781,22.976c-21.517,1.917-41.909,10.684-57.712,26.486
	c-38.663,38.664-35.232,104.777,7.662,147.671c14.274,14.274,31.121,24.173,48.671,29.608c27.383,9.853,56.08,28.089,81.588,53.597
	c38.848,38.849,60.846,85.095,62.014,122.822l0.007,0.006c1.556,29.32,14.035,58.89,37.208,82.063
	c31.641,31.64,75.202,43.35,113.775,34.524c7.908-1.225,26.152-2.912,39.316,4.613V63.353z"/>
</svg>
