<?xml version="1.0" encoding="utf-8"?>
<!-- Generator: Adobe Illustrator 13.0.0, SVG Export Plug-In . SVG Version: 6.00 Build 14948)  -->
<!DOCTYPE svg PUBLIC "-//W3C//DTD SVG 1.1//EN" "http://www.w3.org/Graphics/SVG/1.1/DTD/svg11.dtd">
<svg version="1.1" id="Layer_1" xmlns="http://www.w3.org/2000/svg" xmlns:xlink="http://www.w3.org/1999/xlink" x="0px" y="0px"
	 width="70px" height="30px" viewBox="0 0 70 30" enable-background="new 0 0 70 30" xml:space="preserve">
<g>
	<rect x="20.581" y="24.059" fill="#FF3946" width="30.206" height="5.941"/>
	<g>
		<g>
			<path fill="#314584" d="M14.138,4.027c1.618,1.593,2.428,3.851,2.428,6.776c0,2.926-0.81,5.185-2.428,6.777
				c-1.619,1.592-3.904,2.389-6.854,2.389H0V1.639h7.283C10.234,1.639,12.519,2.435,14.138,4.027z M11.125,15.345
				c0.904-1.046,1.356-2.56,1.356-4.541c0-1.981-0.452-3.495-1.356-4.541c-0.904-1.046-2.252-1.57-4.041-1.57H3.941v12.221h3.142
				C8.873,16.914,10.22,16.39,11.125,15.345z"/>
			<path fill="#314584" d="M32.373,7.721c1.286,1.278,1.928,3.046,1.928,5.305s-0.642,4.027-1.928,5.306
				c-1.286,1.277-3.081,1.915-5.383,1.915c-2.305,0-4.099-0.638-5.384-1.915c-1.285-1.278-1.928-3.047-1.928-5.306
				s0.643-4.026,1.928-5.305c1.285-1.277,3.079-1.917,5.384-1.917C29.292,5.804,31.087,6.444,32.373,7.721z M24.462,9.735
				c-0.581,0.731-0.871,1.828-0.871,3.291c0,1.463,0.29,2.561,0.871,3.292c0.581,0.73,1.423,1.096,2.528,1.096
				c1.104,0,1.946-0.365,2.527-1.096c0.581-0.731,0.871-1.829,0.871-3.292c0-1.462-0.29-2.56-0.871-3.291
				c-0.582-0.731-1.424-1.097-2.527-1.097C25.885,8.638,25.043,9.004,24.462,9.735z"/>
			<path fill="#314584" d="M49.906,7.721c1.288,1.278,1.93,3.046,1.93,5.305s-0.642,4.027-1.93,5.306
				c-1.284,1.277-3.079,1.915-5.384,1.915c-2.302,0-4.098-0.638-5.383-1.915c-1.282-1.278-1.927-3.047-1.927-5.306
				s0.645-4.026,1.927-5.305c1.285-1.277,3.081-1.917,5.383-1.917C46.827,5.804,48.622,6.444,49.906,7.721z M41.996,9.735
				c-0.58,0.731-0.871,1.828-0.871,3.291c0,1.463,0.291,2.561,0.871,3.292c0.581,0.73,1.423,1.096,2.526,1.096
				c1.105,0,1.948-0.365,2.528-1.096c0.581-0.731,0.872-1.829,0.872-3.292c0-1.462-0.291-2.56-0.872-3.291
				c-0.58-0.731-1.423-1.097-2.528-1.097C43.419,8.638,42.577,9.004,41.996,9.735z"/>
			<path fill="#314584" d="M68.371,7.721C69.457,8.999,70,10.776,70,13.054c0,2.26-0.543,4.022-1.629,5.29
				c-1.086,1.269-2.58,1.902-4.483,1.902c-1.124,0-2.099-0.272-2.927-0.818c-0.828-0.547-1.455-1.282-1.871-2.207l-0.143,2.749
				h-3.455V0h3.911v8.36c0.439-0.797,1.036-1.421,1.799-1.875c0.763-0.454,1.657-0.681,2.686-0.681
				C65.791,5.804,67.285,6.444,68.371,7.721z M65.201,16.221c0.59-0.741,0.886-1.806,0.886-3.195c0-1.389-0.296-2.453-0.886-3.194
				c-0.591-0.74-1.419-1.111-2.485-1.111c-0.95,0-1.722,0.324-2.312,0.973c-0.591,0.648-0.924,1.555-1.001,2.721v1.223
				c0.077,1.186,0.41,2.097,1.001,2.735c0.59,0.64,1.361,0.959,2.312,0.959C63.782,17.331,64.61,16.961,65.201,16.221z"/>
		</g>
	</g>
</g>
</svg>
