<?xml version="1.0" encoding="utf-8"?>
<!-- Generator: Adobe Illustrator 13.0.0, SVG Export Plug-In . SVG Version: 6.00 Build 14948)  -->
<!DOCTYPE svg PUBLIC "-//W3C//DTD SVG 1.1//EN" "http://www.w3.org/Graphics/SVG/1.1/DTD/svg11.dtd">
<svg version="1.1" id="Layer_1" xmlns="http://www.w3.org/2000/svg" xmlns:xlink="http://www.w3.org/1999/xlink" x="0px" y="0px"
	 width="56.436px" height="56.886px" viewBox="0 0 56.436 56.886" enable-background="new 0 0 56.436 56.886" xml:space="preserve">
<g>
	<path fill="#314584" d="M56.383,3.852c-0.26-1.804-1.592-3.261-3.33-3.706c-0.035-0.009-0.07-0.02-0.107-0.028
		c-0.033-0.007-0.066-0.013-0.1-0.021c-0.023-0.005-0.049-0.011-0.076-0.016c0,0-0.001-0.001-0.002-0.001
		c-0.102-0.02-0.204-0.035-0.309-0.048L52.444,0.03c-0.023-0.001-0.045-0.006-0.066-0.007C52.235,0.008,52.09-0.001,51.944,0H28.218
		H4.492C4.483,0,4.474,0.001,4.466,0.001c-0.135,0.001-0.269,0.009-0.4,0.021c-0.001,0-0.002,0-0.003,0
		C4.045,0.024,4.027,0.027,4.011,0.03C3.995,0.031,3.98,0.033,3.965,0.035C3.866,0.046,3.77,0.062,3.672,0.08
		C3.624,0.089,3.575,0.1,3.526,0.11c-0.01,0.002-0.021,0.004-0.033,0.007c-0.003,0-0.003,0.001-0.005,0.002
		C3.453,0.127,3.419,0.137,3.385,0.145c-0.438,0.112-0.85,0.288-1.226,0.519C0.868,1.453,0.002,2.873,0,4.494v13.03
		c0,0.003,0,0.007,0,0.011v34.858c0.003,2.478,2.016,4.49,4.492,4.493h47.452c2.477-0.003,4.489-2.016,4.492-4.493V17.527
		c0-0.001,0-0.001,0-0.003V4.494C56.436,4.276,56.415,4.063,56.383,3.852z M54.639,52.393c-0.003,1.476-1.22,2.692-2.695,2.695
		H4.492c-1.476-0.003-2.692-1.22-2.694-2.695V6.3l4.006,11.708c0.292,0.846,0.808,1.593,1.452,2.212
		c0.236,0.228,0.488,0.44,0.754,0.631c0.995,0.708,2.182,1.164,3.403,1.167h10.024v-1.797H11.413
		c-0.755,0.003-1.628-0.307-2.358-0.832c-0.733-0.522-1.308-1.246-1.55-1.962L2.912,4.009C2.817,3.73,2.778,3.478,2.778,3.259
		c0.004-0.46,0.156-0.784,0.42-1.032C3.337,2.099,3.521,1.99,3.75,1.915c0.09-0.026,0.179-0.054,0.272-0.072
		c0.037-0.006,0.073-0.011,0.11-0.016c0.049-0.008,0.101-0.008,0.151-0.013C4.345,1.809,4.406,1.8,4.475,1.799
		c0.007,0,0.012-0.001,0.018-0.001h47.452c0.006,0,0.012,0.001,0.02,0.001c0.058,0.001,0.107,0.008,0.162,0.013
		c0.061,0.004,0.121,0.005,0.18,0.015c0.037,0.005,0.072,0.01,0.109,0.016c0,0,0,0,0.002,0c0.359,0.068,0.631,0.209,0.822,0.384
		c0.264,0.249,0.414,0.572,0.42,1.032c0,0.22-0.04,0.472-0.135,0.75l-4.593,13.417c-0.24,0.716-0.815,1.44-1.55,1.962
		c-0.73,0.525-1.602,0.835-2.357,0.832H35v1.797h10.023c1.223-0.003,2.408-0.459,3.402-1.167c0.266-0.191,0.52-0.403,0.756-0.631
		c0.643-0.62,1.158-1.367,1.449-2.212l4.008-11.707V6.3V52.393z"/>
	<path fill="#FF3946" d="M28.218,9.346c-2.638,0.001-4.797,2.031-5.011,4.614h-0.022v0.416c0,0.001,0,0.002,0,0.002
		c0,0.002,0,0.003,0,0.005v14.428c0,0.003,0,0.005,0,0.007c0,0.003,0,0.004,0,0.007v0.531h0.03c0.269,2.526,2.405,4.493,5.003,4.494
		c2.597-0.001,4.733-1.968,5.003-4.494h0.029V13.959h-0.021C33.016,11.376,30.856,9.347,28.218,9.346z M28.218,11.144
		c1.644,0.003,2.995,1.228,3.204,2.815h-6.409C25.223,12.372,26.575,11.147,28.218,11.144z M28.218,32.052
		c-1.603-0.002-2.927-1.167-3.186-2.696h6.373C31.146,30.885,29.821,32.05,28.218,32.052z M31.454,27.56h-6.471V15.756h6.471V27.56z
		"/>
	<rect x="26.645" y="20.221" fill="#3D3D49" width="3.146" height="1.797"/>
</g>
</svg>
